<svg viewBox="0 0 120 120" width="100%" height="100%" xmlns="http://www.w3.org/2000/svg">
  <!-- Wreath Leaves (Left & Right halves) -->
  <path d="M38,78 C24,66 26,44 38,32 C34,36 32,46 36,54 C34,50 30,42 34,34 C30,42 28,52 34,60 C30,56 26,48 30,40 C26,48 26,58 32,66 M32,66 C28,62 24,54 28,46" fill="none" stroke="#D4A017" stroke-width="1.8" stroke-linecap="round"/>
  <path d="M38,78 C30,76 22,66 26,56 M42,84 C34,82 28,74 32,64" fill="none" stroke="#D4A017" stroke-width="1.5"/>
  
  <path d="M82,78 C96,66 94,44 82,32 C86,36 88,46 84,54 C86,50 90,42 86,34 C90,42 92,52 86,60 C90,56 94,48 90,40 C94,48 94,58 88,66 M88,66 C92,62 96,54 92,46" fill="none" stroke="#D4A017" stroke-width="1.8" stroke-linecap="round"/>
  <path d="M82,78 C90,76 98,66 94,56 M78,84 C86,82 92,74 88,64" fill="none" stroke="#D4A017" stroke-width="1.5"/>

  <!-- Central Castle/Fortress -->
  <g fill="#edf4f1" stroke="#1B4332" stroke-width="0.8">
    <path d="M44,70 L76,70 L76,54 L71,54 L71,48 L67,48 L67,54 L65,54 L65,40 L55,40 L55,54 L53,54 L53,48 L49,48 L49,54 L44,54 Z"/>
    <path d="M56,70 L56,60 C56,58 64,58 64,60 L64,70 Z" fill="#1B4332"/>
    <rect x="58" y="44" width="4" height="6" fill="#1B4332"/>
    <rect x="46" y="52" width="2" height="2" fill="#1B4332"/>
    <rect x="72" y="52" width="2" height="2" fill="#1B4332"/>
  </g>

  <!-- Ashoka Lion Capital at Top -->
  <g fill="#edf4f1" stroke="#D4A017" stroke-width="0.8">
    <path d="M48,27 L72,27 L69,31 L51,31 Z"/>
    <circle cx="60" cy="29" r="1.5" fill="#D4A017"/>
    <path d="M55,10 C55,4 65,4 65,10 L64,18 C64,21 62,23 60,23 C58,23 56,21 56,18 Z"/>
    <path d="M52,14 C48,10 54,8 56,12 L56,22 Z"/>
    <path d="M68,14 C72,10 66,8 64,12 L64,22 Z"/>
    <path d="M55,15 L65,15 M56,18 L64,18 M58,21 L62,21" stroke="#D4A017" stroke-width="0.5"/>
  </g>

  <!-- Ribbon Banner at Bottom -->
  <g>
    <path d="M22,94 Q60,104 98,94 L94,88 Q60,98 26,88 Z" fill="#edf4f1" stroke="#D4A017" stroke-width="1.2"/>
    <path d="M22,94 L15,86 L26,88 Z" fill="#edf4f1" stroke="#D4A017" stroke-width="1"/>
    <path d="M98,94 L105,86 L94,88 Z" fill="#edf4f1" stroke="#D4A017" stroke-width="1"/>
    <path id="textPath" d="M25,93 Q60,102 95,93" fill="none" stroke="none"/>
    <text font-family="'Rajdhani', sans-serif" font-weight="800" font-size="6.2" fill="#1B4332" text-anchor="middle">
      <textPath href="#textPath" startOffset="50%">CORPS OF ENGINEERS</textPath>
    </text>
  </g>
</svg>
